# xmcd
# 
# Track frame offsets:
#     150
#     13457
#     25944
#     38327
#     49672
#     63535
#     76567
#     88882
#     101707
#     116275
#     134242
#     148792
#     160952
#     174212
#     186750
#     198570
#     213445
#     226487
#     247665
#     257992
#     270010
#     288652
#     311617
# 
# Disc length: 4324
# 
# Revision: 7
# Processed by: cddbd v1.5.2PL0 Copyright (c) Steve Scherf et al.
# Submitted via: fre:ac v1.0.31
# 
DISCID=4310e217
DTITLE=Muddy Waters - Muddy Waters  The Chess Box, 1947-1972 Disc 3
DYEAR=1989
DGENRE=Blues
TTITLE0=I Feel So Good (live)
TTITLE1=You Shook Me
TTITLE2=You Need Love
TTITLE3=Twenty Four Hours
TTITLE4=Elevate Me Mama (alternate take)
TTITLE5=So Glad I'm Living
TTITLE6=My Love Strikes Like Lightning
TTITLE7=You Don't Have to Go (alternate take)
TTITLE8=Things That I Used to Do
TTITLE9=My Home is in the Delta
TTITLE10=Good Morning Little Schoolgirl
TTITLE11=The Same Thing
TTITLE12=You Can't Lose What You Never Had
TTITLE13=Short Dress Woman
TTITLE14=Making Friends
TTITLE15=Black Night (alternate mix without horns)
TTITLE16=Bird Nest on the Ground
TTITLE17=Country Boy (live)
TTITLE18=Sugar Sweet (alternate "Fathers and Sons" take)
TTITLE19=All Aboard (alternate "Fathers and Sons" take)
TTITLE20=Going Down Slow (live)
TTITLE21=Who's Gonna Be Your Sweet Man When I'm Gone (original London mix without horns)
TTITLE22=Can't Get No Grindin' (What's the Matter With the Meal)
EXTD=
EXTT0=
EXTT1=
EXTT2=
EXTT3=
EXTT4=
EXTT5=
EXTT6=
EXTT7=
EXTT8=
EXTT9=
EXTT10=
EXTT11=
EXTT12=
EXTT13=
EXTT14=
EXTT15=
EXTT16=
EXTT17=
EXTT18=
EXTT19=
EXTT20=
EXTT21=
EXTT22=
PLAYORDER=
